<?xml version="1.0" encoding="UTF-8" standalone="no"?>
<!DOCTYPE svg PUBLIC "-//W3C//DTD SVG 1.1//EN"
 "http://www.w3.org/Graphics/SVG/1.1/DTD/svg11.dtd">
<!-- Generated by graphviz version 7.0.1 (20221109.1506)
 -->
<!-- Pages: 1 -->
<svg width="1349pt" height="332pt"
 viewBox="0.00 0.00 1348.57 332.00" xmlns="http://www.w3.org/2000/svg" xmlns:xlink="http://www.w3.org/1999/xlink">
<g id="graph0" class="graph" transform="scale(1 1) rotate(0) translate(4 328)">
<polygon fill="white" stroke="none" points="-4,4 -4,-328 1344.57,-328 1344.57,4 -4,4"/>
<!-- [root] local_file.pet (expand) -->
<g id="node1" class="node">
<title>[root] local_file.pet (expand)</title>
<polygon fill="none" stroke="black" points="1024.07,-180 936.07,-180 936.07,-144 1024.07,-144 1024.07,-180"/>
<text text-anchor="middle" x="980.07" y="-158.3" font-family="Times,serif" font-size="14.00">local_file.pet</text>
</g>
<!-- [root] provider[&quot;registry.terraform.io/hashicorp/local&quot;] -->
<g id="node2" class="node">
<title>[root] provider[&quot;registry.terraform.io/hashicorp/local&quot;]</title>
<polygon fill="none" stroke="black" points="980.07,-108 722.84,-90 980.07,-72 1237.3,-90 980.07,-108"/>
<text text-anchor="middle" x="980.07" y="-86.3" font-family="Times,serif" font-size="14.00">provider[&quot;registry.terraform.io/hashicorp/local&quot;]</text>
</g>
<!-- [root] local_file.pet (expand)&#45;&gt;[root] provider[&quot;registry.terraform.io/hashicorp/local&quot;] -->
<g id="edge1" class="edge">
<title>[root] local_file.pet (expand)&#45;&gt;[root] provider[&quot;registry.terraform.io/hashicorp/local&quot;]</title>
<path fill="none" stroke="black" d="M980.07,-143.7C980.07,-136.41 980.07,-127.73 980.07,-119.54"/>
<polygon fill="black" stroke="black" points="983.57,-119.62 980.07,-109.62 976.57,-119.62 983.57,-119.62"/>
</g>
<!-- [root] random_pet.my&#45;pet (expand) -->
<g id="node4" class="node">
<title>[root] random_pet.my&#45;pet (expand)</title>
<polygon fill="none" stroke="black" points="704.57,-108 579.57,-108 579.57,-72 704.57,-72 704.57,-108"/>
<text text-anchor="middle" x="642.07" y="-86.3" font-family="Times,serif" font-size="14.00">random_pet.my&#45;pet</text>
</g>
<!-- [root] local_file.pet (expand)&#45;&gt;[root] random_pet.my&#45;pet (expand) -->
<g id="edge2" class="edge">
<title>[root] local_file.pet (expand)&#45;&gt;[root] random_pet.my&#45;pet (expand)</title>
<path fill="none" stroke="black" d="M935.67,-146.25C932.77,-145.44 929.89,-144.69 927.07,-144 837.25,-122.12 810.17,-126.65 716.04,-108.3"/>
<polygon fill="black" stroke="black" points="716.82,-104.89 706.33,-106.37 715.46,-111.75 716.82,-104.89"/>
</g>
<!-- [root] var.filename -->
<g id="node6" class="node">
<title>[root] var.filename</title>
<polygon fill="none" stroke="black" points="1334.57,-108 1255.57,-108 1255.57,-72 1340.57,-72 1340.57,-102 1334.57,-108"/>
<polyline fill="none" stroke="black" points="1334.57,-108 1334.57,-102"/>
<polyline fill="none" stroke="black" points="1340.57,-102 1334.57,-102"/>
<text text-anchor="middle" x="1298.07" y="-86.3" font-family="Times,serif" font-size="14.00">var.filename</text>
</g>
<!-- [root] local_file.pet (expand)&#45;&gt;[root] var.filename -->
<g id="edge3" class="edge">
<title>[root] local_file.pet (expand)&#45;&gt;[root] var.filename</title>
<path fill="none" stroke="black" d="M1024.21,-153.87C1075.06,-145.29 1161.24,-129.62 1244.42,-108.26"/>
<polygon fill="black" stroke="black" points="1245.08,-111.7 1253.88,-105.8 1243.32,-104.93 1245.08,-111.7"/>
</g>
<!-- [root] provider[&quot;registry.terraform.io/hashicorp/random&quot;] -->
<g id="node3" class="node">
<title>[root] provider[&quot;registry.terraform.io/hashicorp/random&quot;]</title>
<polygon fill="none" stroke="black" points="272.07,-36 -0.07,-18 272.07,0 544.21,-18 272.07,-36"/>
<text text-anchor="middle" x="272.07" y="-14.3" font-family="Times,serif" font-size="14.00">provider[&quot;registry.terraform.io/hashicorp/random&quot;]</text>
</g>
<!-- [root] random_pet.my&#45;pet (expand)&#45;&gt;[root] provider[&quot;registry.terraform.io/hashicorp/random&quot;] -->
<g id="edge7" class="edge">
<title>[root] random_pet.my&#45;pet (expand)&#45;&gt;[root] provider[&quot;registry.terraform.io/hashicorp/random&quot;]</title>
<path fill="none" stroke="black" d="M579.31,-77.13C516.51,-65.25 419.72,-46.93 351.59,-34.04"/>
<polygon fill="black" stroke="black" points="352.45,-30.65 341.98,-32.23 351.15,-37.52 352.45,-30.65"/>
</g>
<!-- [root] var.length -->
<g id="node7" class="node">
<title>[root] var.length</title>
<polygon fill="none" stroke="black" points="627.57,-36 562.57,-36 562.57,0 633.57,0 633.57,-30 627.57,-36"/>
<polyline fill="none" stroke="black" points="627.57,-36 627.57,-30"/>
<polyline fill="none" stroke="black" points="633.57,-30 627.57,-30"/>
<text text-anchor="middle" x="598.07" y="-14.3" font-family="Times,serif" font-size="14.00">var.length</text>
</g>
<!-- [root] random_pet.my&#45;pet (expand)&#45;&gt;[root] var.length -->
<g id="edge8" class="edge">
<title>[root] random_pet.my&#45;pet (expand)&#45;&gt;[root] var.length</title>
<path fill="none" stroke="black" d="M631.19,-71.7C626.29,-63.9 620.39,-54.51 614.93,-45.83"/>
<polygon fill="black" stroke="black" points="617.91,-43.99 609.63,-37.39 611.99,-47.71 617.91,-43.99"/>
</g>
<!-- [root] var.prefix -->
<g id="node8" class="node">
<title>[root] var.prefix</title>
<polygon fill="none" stroke="black" points="714.57,-36 651.57,-36 651.57,0 720.57,0 720.57,-30 714.57,-36"/>
<polyline fill="none" stroke="black" points="714.57,-36 714.57,-30"/>
<polyline fill="none" stroke="black" points="720.57,-30 714.57,-30"/>
<text text-anchor="middle" x="686.07" y="-14.3" font-family="Times,serif" font-size="14.00">var.prefix</text>
</g>
<!-- [root] random_pet.my&#45;pet (expand)&#45;&gt;[root] var.prefix -->
<g id="edge9" class="edge">
<title>[root] random_pet.my&#45;pet (expand)&#45;&gt;[root] var.prefix</title>
<path fill="none" stroke="black" d="M652.95,-71.7C657.85,-63.9 663.75,-54.51 669.21,-45.83"/>
<polygon fill="black" stroke="black" points="672.16,-47.71 674.51,-37.39 666.23,-43.99 672.16,-47.71"/>
</g>
<!-- [root] var.separator -->
<g id="node9" class="node">
<title>[root] var.separator</title>
<polygon fill="none" stroke="black" points="819.07,-36 739.07,-36 739.07,0 825.07,0 825.07,-30 819.07,-36"/>
<polyline fill="none" stroke="black" points="819.07,-36 819.07,-30"/>
<polyline fill="none" stroke="black" points="825.07,-30 819.07,-30"/>
<text text-anchor="middle" x="782.07" y="-14.3" font-family="Times,serif" font-size="14.00">var.separator</text>
</g>
<!-- [root] random_pet.my&#45;pet (expand)&#45;&gt;[root] var.separator -->
<g id="edge10" class="edge">
<title>[root] random_pet.my&#45;pet (expand)&#45;&gt;[root] var.separator</title>
<path fill="none" stroke="black" d="M677.04,-71.52C695.3,-62.39 717.85,-51.11 737.36,-41.35"/>
<polygon fill="black" stroke="black" points="738.82,-44.54 746.2,-36.94 735.69,-38.28 738.82,-44.54"/>
</g>
<!-- [root] var.content -->
<g id="node5" class="node">
<title>[root] var.content</title>
<polygon fill="none" stroke="black" points="604.57,-252 533.57,-252 533.57,-216 610.57,-216 610.57,-246 604.57,-252"/>
<polyline fill="none" stroke="black" points="604.57,-252 604.57,-246"/>
<polyline fill="none" stroke="black" points="610.57,-246 604.57,-246"/>
<text text-anchor="middle" x="572.07" y="-230.3" font-family="Times,serif" font-size="14.00">var.content</text>
</g>
<!-- [root] output.pet&#45;name (expand) -->
<g id="node10" class="node">
<title>[root] output.pet&#45;name (expand)</title>
<ellipse fill="none" stroke="black" cx="293.07" cy="-162" rx="124.58" ry="18"/>
<text text-anchor="middle" x="293.07" y="-158.3" font-family="Times,serif" font-size="14.00">[root] output.pet&#45;name (expand)</text>
</g>
<!-- [root] output.pet&#45;name (expand)&#45;&gt;[root] random_pet.my&#45;pet (expand) -->
<g id="edge4" class="edge">
<title>[root] output.pet&#45;name (expand)&#45;&gt;[root] random_pet.my&#45;pet (expand)</title>
<path fill="none" stroke="black" d="M363.7,-146.83C423.14,-134.91 507.86,-117.92 568.19,-105.82"/>
<polygon fill="black" stroke="black" points="568.57,-109.31 577.68,-103.91 567.19,-102.45 568.57,-109.31"/>
</g>
<!-- [root] provider[&quot;registry.terraform.io/hashicorp/local&quot;] (close) -->
<g id="node11" class="node">
<title>[root] provider[&quot;registry.terraform.io/hashicorp/local&quot;] (close)</title>
<ellipse fill="none" stroke="black" cx="958.07" cy="-234" rx="230.96" ry="18"/>
<text text-anchor="middle" x="958.07" y="-230.3" font-family="Times,serif" font-size="14.00">[root] provider[&quot;registry.terraform.io/hashicorp/local&quot;] (close)</text>
</g>
<!-- [root] provider[&quot;registry.terraform.io/hashicorp/local&quot;] (close)&#45;&gt;[root] local_file.pet (expand) -->
<g id="edge5" class="edge">
<title>[root] provider[&quot;registry.terraform.io/hashicorp/local&quot;] (close)&#45;&gt;[root] local_file.pet (expand)</title>
<path fill="none" stroke="black" d="M963.51,-215.7C965.85,-208.24 968.66,-199.32 971.28,-190.97"/>
<polygon fill="black" stroke="black" points="974.58,-192.14 974.24,-181.55 967.9,-190.04 974.58,-192.14"/>
</g>
<!-- [root] provider[&quot;registry.terraform.io/hashicorp/random&quot;] (close) -->
<g id="node12" class="node">
<title>[root] provider[&quot;registry.terraform.io/hashicorp/random&quot;] (close)</title>
<ellipse fill="none" stroke="black" cx="677.07" cy="-162" rx="241.26" ry="18"/>
<text text-anchor="middle" x="677.07" y="-158.3" font-family="Times,serif" font-size="14.00">[root] provider[&quot;registry.terraform.io/hashicorp/random&quot;] (close)</text>
</g>
<!-- [root] provider[&quot;registry.terraform.io/hashicorp/random&quot;] (close)&#45;&gt;[root] random_pet.my&#45;pet (expand) -->
<g id="edge6" class="edge">
<title>[root] provider[&quot;registry.terraform.io/hashicorp/random&quot;] (close)&#45;&gt;[root] random_pet.my&#45;pet (expand)</title>
<path fill="none" stroke="black" d="M668.42,-143.7C664.6,-136.07 660.03,-126.92 655.77,-118.4"/>
<polygon fill="black" stroke="black" points="658.9,-116.84 651.3,-109.46 652.64,-119.97 658.9,-116.84"/>
</g>
<!-- [root] root -->
<g id="node13" class="node">
<title>[root] root</title>
<ellipse fill="none" stroke="black" cx="658.07" cy="-306" rx="47.39" ry="18"/>
<text text-anchor="middle" x="658.07" y="-302.3" font-family="Times,serif" font-size="14.00">[root] root</text>
</g>
<!-- [root] root&#45;&gt;[root] var.content -->
<g id="edge14" class="edge">
<title>[root] root&#45;&gt;[root] var.content</title>
<path fill="none" stroke="black" d="M638.56,-289.12C627.81,-280.37 614.25,-269.33 602.18,-259.51"/>
<polygon fill="black" stroke="black" points="604.45,-256.85 594.49,-253.25 600.04,-262.27 604.45,-256.85"/>
</g>
<!-- [root] root&#45;&gt;[root] output.pet&#45;name (expand) -->
<g id="edge11" class="edge">
<title>[root] root&#45;&gt;[root] output.pet&#45;name (expand)</title>
<path fill="none" stroke="black" d="M655.5,-287.57C651.5,-267.05 641.74,-233.57 619.07,-216 609.99,-208.96 484.56,-189.97 391.99,-176.75"/>
<polygon fill="black" stroke="black" points="392.76,-173.32 382.37,-175.38 391.77,-180.25 392.76,-173.32"/>
</g>
<!-- [root] root&#45;&gt;[root] provider[&quot;registry.terraform.io/hashicorp/local&quot;] (close) -->
<g id="edge12" class="edge">
<title>[root] root&#45;&gt;[root] provider[&quot;registry.terraform.io/hashicorp/local&quot;] (close)</title>
<path fill="none" stroke="black" d="M697.6,-295.78C742.81,-285.23 818.08,-267.66 876.11,-254.12"/>
<polygon fill="black" stroke="black" points="876.69,-257.58 885.63,-251.9 875.1,-250.77 876.69,-257.58"/>
</g>
<!-- [root] root&#45;&gt;[root] provider[&quot;registry.terraform.io/hashicorp/random&quot;] (close) -->
<g id="edge13" class="edge">
<title>[root] root&#45;&gt;[root] provider[&quot;registry.terraform.io/hashicorp/random&quot;] (close)</title>
<path fill="none" stroke="black" d="M660.4,-287.59C663.61,-263.61 669.42,-220.14 673.27,-191.42"/>
<polygon fill="black" stroke="black" points="676.72,-191.99 674.58,-181.61 669.78,-191.06 676.72,-191.99"/>
</g>
</g>
</svg>
